0
SECTION
2
ENTITIES
0
CIRCLE
8
0
10
0.0
20
0.0
40
2
0
CIRCLE
8
0
10
-5.08
20
0.0
40
0.85
0
CIRCLE
8
0
10
5.08
20
0.0
40
0.85
0
CIRCLE
8
0
10
2.54
20
-5.08
40
0.75
0
CIRCLE
8
0
10
-2.54
20
-3.81
40
0.75
0
CIRCLE
8
0
10
15.65
20
0.0
40
2
0
CIRCLE
8
0
10
10.57
20
0.0
40
0.85
0
CIRCLE
8
0
10
20.73
20
0.0
40
0.85
0
CIRCLE
8
0
10
18.19
20
-5.08
40
0.75
0
CIRCLE
8
0
10
13.11
20
-3.81
40
0.75
0
CIRCLE
8
0
10
31.3
20
0.0
40
2
0
CIRCLE
8
0
10
26.22
20
0.0
40
0.85
0
CIRCLE
8
0
10
36.38
20
0.0
40
0.85
0
CIRCLE
8
0
10
33.84
20
-5.08
40
0.75
0
CIRCLE
8
0
10
28.76
20
-3.81
40
0.75
0
CIRCLE
8
0
10
0.0
20
15.85
40
2
0
CIRCLE
8
0
10
-5.08
20
15.85
40
0.85
0
CIRCLE
8
0
10
5.08
20
15.85
40
0.85
0
CIRCLE
8
0
10
2.54
20
10.77
40
0.75
0
CIRCLE
8
0
10
-2.54
20
12.04
40
0.75
0
CIRCLE
8
0
10
15.65
20
15.85
40
2
0
CIRCLE
8
0
10
10.57
20
15.85
40
0.85
0
CIRCLE
8
0
10
20.73
20
15.85
40
0.85
0
CIRCLE
8
0
10
18.19
20
10.77
40
0.75
0
CIRCLE
8
0
10
13.11
20
12.04
40
0.75
0
CIRCLE
8
0
10
31.3
20
15.85
40
2
0
CIRCLE
8
0
10
26.22
20
15.85
40
0.85
0
CIRCLE
8
0
10
36.38
20
15.85
40
0.85
0
CIRCLE
8
0
10
33.84
20
10.77
40
0.75
0
CIRCLE
8
0
10
28.76
20
12.04
40
0.75
0
CIRCLE
8
0
10
0.0
20
31.7
40
2
0
CIRCLE
8
0
10
-5.08
20
31.7
40
0.85
0
CIRCLE
8
0
10
5.08
20
31.7
40
0.85
0
CIRCLE
8
0
10
2.54
20
26.62
40
0.75
0
CIRCLE
8
0
10
-2.54
20
27.89
40
0.75
0
CIRCLE
8
0
10
15.65
20
31.7
40
2
0
CIRCLE
8
0
10
10.57
20
31.7
40
0.85
0
CIRCLE
8
0
10
20.73
20
31.7
40
0.85
0
CIRCLE
8
0
10
18.19
20
26.62
40
0.75
0
CIRCLE
8
0
10
13.11
20
27.89
40
0.75
0
CIRCLE
8
0
10
31.3
20
31.7
40
2
0
CIRCLE
8
0
10
26.22
20
31.7
40
0.85
0
CIRCLE
8
0
10
36.38
20
31.7
40
0.85
0
CIRCLE
8
0
10
33.84
20
26.62
40
0.75
0
CIRCLE
8
0
10
28.76
20
27.89
40
0.75
0
ENDSEC
0
EOF
