0
SECTION
2
ENTITIES
0
CIRCLE
8
0
10
0.0
20
0.0
40
2
0
CIRCLE
8
0
10
-5.08
20
0.0
40
0.85
0
CIRCLE
8
0
10
5.08
20
0.0
40
0.85
0
CIRCLE
8
0
10
2.54
20
-5.08
40
0.75
0
CIRCLE
8
0
10
-3.54
20
-2.6
40
0.75
0
CIRCLE
8
0
10
15.75
20
0.0
40
2
0
CIRCLE
8
0
10
10.67
20
0.0
40
0.85
0
CIRCLE
8
0
10
20.83
20
0.0
40
0.85
0
CIRCLE
8
0
10
18.29
20
-5.08
40
0.75
0
CIRCLE
8
0
10
12.21
20
-2.6
40
0.75
0
CIRCLE
8
0
10
31.5
20
0.0
40
2
0
CIRCLE
8
0
10
26.42
20
0.0
40
0.85
0
CIRCLE
8
0
10
36.58
20
0.0
40
0.85
0
CIRCLE
8
0
10
34.04
20
-5.08
40
0.75
0
CIRCLE
8
0
10
27.96
20
-2.6
40
0.75
0
CIRCLE
8
0
10
0.0
20
15.95
40
2
0
CIRCLE
8
0
10
-5.08
20
15.95
40
0.85
0
CIRCLE
8
0
10
5.08
20
15.95
40
0.85
0
CIRCLE
8
0
10
2.54
20
10.87
40
0.75
0
CIRCLE
8
0
10
-3.54
20
13.35
40
0.75
0
CIRCLE
8
0
10
15.75
20
15.95
40
2
0
CIRCLE
8
0
10
10.67
20
15.95
40
0.85
0
CIRCLE
8
0
10
20.83
20
15.95
40
0.85
0
CIRCLE
8
0
10
18.29
20
10.87
40
0.75
0
CIRCLE
8
0
10
12.21
20
13.35
40
0.75
0
CIRCLE
8
0
10
31.5
20
15.95
40
2
0
CIRCLE
8
0
10
26.42
20
15.95
40
0.85
0
CIRCLE
8
0
10
36.58
20
15.95
40
0.85
0
CIRCLE
8
0
10
34.04
20
10.87
40
0.75
0
CIRCLE
8
0
10
27.96
20
13.35
40
0.75
0
CIRCLE
8
0
10
0.0
20
31.9
40
2
0
CIRCLE
8
0
10
-5.08
20
31.9
40
0.85
0
CIRCLE
8
0
10
5.08
20
31.9
40
0.85
0
CIRCLE
8
0
10
2.54
20
26.82
40
0.75
0
CIRCLE
8
0
10
-3.54
20
29.3
40
0.75
0
CIRCLE
8
0
10
15.75
20
31.9
40
2
0
CIRCLE
8
0
10
10.67
20
31.9
40
0.85
0
CIRCLE
8
0
10
20.83
20
31.9
40
0.85
0
CIRCLE
8
0
10
18.29
20
26.82
40
0.75
0
CIRCLE
8
0
10
12.21
20
29.3
40
0.75
0
CIRCLE
8
0
10
31.5
20
31.9
40
2
0
CIRCLE
8
0
10
26.42
20
31.9
40
0.85
0
CIRCLE
8
0
10
36.58
20
31.9
40
0.85
0
CIRCLE
8
0
10
34.04
20
26.82
40
0.75
0
CIRCLE
8
0
10
27.96
20
29.3
40
0.75
0
LINE
8
0
10
-7.875
20
-7.975
11
-7.875
21
39.875
0
LINE
8
0
10
-7.875
20
39.875
11
39.375
21
39.875
0
LINE
8
0
10
39.375
20
39.875
11
39.375
21
-7.975
0
LINE
8
0
10
39.375
20
-7.975
11
-7.875
21
-7.975
0
ENDSEC
0
EOF
